<svg xmlns="http://www.w3.org/2000/svg" viewBox="0 0 588 375" fill="none">
  <rect x="60.0" y="20.0" width="520.0" height="300.0" fill="var(--colore-foglio, #fbf9f5)" />
  <path d="M60.0 20.0 V320.0 M190.0 20.0 V320.0 M320.0 20.0 V320.0 M450.0 20.0 V320.0 M580.0 20.0 V320.0 M60.0 20.0 H580.0 M60.0 80.0 H580.0 M60.0 140.0 H580.0 M60.0 200.0 H580.0 M60.0 260.0 H580.0 M60.0 320.0 H580.0" stroke="var(--colore-filetto, #d9d3c6)" stroke-width="1" />
  <path d="M60.0 80.0 L320.0 80.0 L580.0 320.0" fill="none" stroke="var(--colore-rosso, #b3261e)" stroke-width="1.6" stroke-linejoin="round" stroke-linecap="round" stroke-dasharray="7 5" />
  <path d="M60.0 80.0 L60.7 80.0 L61.3 80.0 L62.0 80.0 L62.6 80.0 L63.3 80.0 L63.9 80.0 L64.6 80.0 L65.2 80.0 L65.9 80.0 L66.5 80.0 L67.2 80.0 L67.8 80.0 L68.5 80.0 L69.1 80.0 L69.8 80.0 L70.4 80.0 L71.1 80.0 L71.7 80.0 L72.4 80.0 L73.0 80.0 L73.7 80.0 L74.3 80.0 L75.0 80.0 L75.6 80.0 L76.3 80.0 L76.9 80.0 L77.6 80.0 L78.2 80.0 L78.9 80.0 L79.5 80.0 L80.2 80.0 L80.8 80.0 L81.5 80.0 L82.1 80.0 L82.8 80.0 L83.4 80.0 L84.1 80.0 L84.7 80.0 L85.4 80.0 L86.0 80.0 L86.7 80.0 L87.3 80.0 L88.0 80.0 L88.6 80.0 L89.3 80.0 L89.9 80.0 L90.6 80.0 L91.2 80.0 L91.9 80.0 L92.5 80.0 L93.2 80.0 L93.8 80.0 L94.5 80.0 L95.1 80.0 L95.8 80.0 L96.4 80.0 L97.1 80.0 L97.7 80.0 L98.4 80.0 L99.0 80.0 L99.7 80.0 L100.4 80.0 L101.0 80.0 L101.7 80.0 L102.3 80.0 L103.0 80.0 L103.6 80.0 L104.3 80.0 L104.9 80.0 L105.6 80.0 L106.2 80.0 L106.9 80.0 L107.5 80.0 L108.2 80.0 L108.8 80.0 L109.5 80.0 L110.1 80.0 L110.8 80.0 L111.4 80.0 L112.1 80.0 L112.7 80.0 L113.4 80.0 L114.0 80.0 L114.7 80.0 L115.3 80.0 L116.0 80.0 L116.6 80.0 L117.3 80.0 L117.9 80.0 L118.6 80.0 L119.2 80.0 L119.9 80.0 L120.5 80.0 L121.2 80.0 L121.8 80.0 L122.5 80.0 L123.1 80.0 L123.8 80.0 L124.4 80.0 L125.1 80.0 L125.7 80.0 L126.4 80.0 L127.0 80.0 L127.7 80.0 L128.3 80.0 L129.0 80.0 L129.6 80.0 L130.3 80.0 L130.9 80.0 L131.6 80.0 L132.2 80.0 L132.9 80.0 L133.5 80.0 L134.2 80.0 L134.8 80.0 L135.5 80.0 L136.1 80.0 L136.8 80.0 L137.4 80.0 L138.1 80.0 L138.7 80.0 L139.4 80.0 L140.1 80.0 L140.7 80.0 L141.4 80.0 L142.0 80.0 L142.7 80.0 L143.3 80.0 L144.0 80.1 L144.6 80.1 L145.3 80.1 L145.9 80.1 L146.6 80.1 L147.2 80.1 L147.9 80.1 L148.5 80.1 L149.2 80.1 L149.8 80.1 L150.5 80.1 L151.1 80.1 L151.8 80.1 L152.4 80.1 L153.1 80.1 L153.7 80.1 L154.4 80.1 L155.0 80.1 L155.7 80.1 L156.3 80.1 L157.0 80.1 L157.6 80.1 L158.3 80.1 L158.9 80.1 L159.6 80.1 L160.2 80.1 L160.9 80.1 L161.5 80.1 L162.2 80.1 L162.8 80.1 L163.5 80.1 L164.1 80.1 L164.8 80.1 L165.4 80.1 L166.1 80.1 L166.7 80.1 L167.4 80.1 L168.0 80.1 L168.7 80.1 L169.3 80.1 L170.0 80.1 L170.6 80.1 L171.3 80.1 L171.9 80.1 L172.6 80.1 L173.2 80.1 L173.9 80.1 L174.5 80.2 L175.2 80.2 L175.8 80.2 L176.5 80.2 L177.1 80.2 L177.8 80.2 L178.4 80.2 L179.1 80.2 L179.7 80.2 L180.4 80.2 L181.1 80.2 L181.7 80.2 L182.4 80.2 L183.0 80.2 L183.7 80.2 L184.3 80.2 L185.0 80.2 L185.6 80.2 L186.3 80.2 L186.9 80.2 L187.6 80.2 L188.2 80.2 L188.9 80.2 L189.5 80.3 L190.2 80.3 L190.8 80.3 L191.5 80.3 L192.1 80.3 L192.8 80.3 L193.4 80.3 L194.1 80.3 L194.7 80.3 L195.4 80.3 L196.0 80.3 L196.7 80.3 L197.3 80.3 L198.0 80.3 L198.6 80.4 L199.3 80.4 L199.9 80.4 L200.6 80.4 L201.2 80.4 L201.9 80.4 L202.5 80.4 L203.2 80.4 L203.8 80.4 L204.5 80.4 L205.1 80.4 L205.8 80.5 L206.4 80.5 L207.1 80.5 L207.7 80.5 L208.4 80.5 L209.0 80.5 L209.7 80.5 L210.3 80.5 L211.0 80.5 L211.6 80.6 L212.3 80.6 L212.9 80.6 L213.6 80.6 L214.2 80.6 L214.9 80.6 L215.5 80.6 L216.2 80.7 L216.8 80.7 L217.5 80.7 L218.1 80.7 L218.8 80.7 L219.4 80.7 L220.1 80.7 L220.8 80.8 L221.4 80.8 L222.1 80.8 L222.7 80.8 L223.4 80.8 L224.0 80.9 L224.7 80.9 L225.3 80.9 L226.0 80.9 L226.6 80.9 L227.3 81.0 L227.9 81.0 L228.6 81.0 L229.2 81.0 L229.9 81.0 L230.5 81.1 L231.2 81.1 L231.8 81.1 L232.5 81.1 L233.1 81.2 L233.8 81.2 L234.4 81.2 L235.1 81.3 L235.7 81.3 L236.4 81.3 L237.0 81.3 L237.7 81.4 L238.3 81.4 L239.0 81.4 L239.6 81.5 L240.3 81.5 L240.9 81.5 L241.6 81.6 L242.2 81.6 L242.9 81.6 L243.5 81.7 L244.2 81.7 L244.8 81.8 L245.5 81.8 L246.1 81.8 L246.8 81.9 L247.4 81.9 L248.1 82.0 L248.7 82.0 L249.4 82.1 L250.0 82.1 L250.7 82.1 L251.3 82.2 L252.0 82.2 L252.6 82.3 L253.3 82.3 L253.9 82.4 L254.6 82.4 L255.2 82.5 L255.9 82.6 L256.5 82.6 L257.2 82.7 L257.8 82.7 L258.5 82.8 L259.1 82.9 L259.8 82.9 L260.5 83.0 L261.1 83.0 L261.8 83.1 L262.4 83.2 L263.1 83.3 L263.7 83.3 L264.4 83.4 L265.0 83.5 L265.7 83.5 L266.3 83.6 L267.0 83.7 L267.6 83.8 L268.3 83.9 L268.9 84.0 L269.6 84.0 L270.2 84.1 L270.9 84.2 L271.5 84.3 L272.2 84.4 L272.8 84.5 L273.5 84.6 L274.1 84.7 L274.8 84.8 L275.4 84.9 L276.1 85.0 L276.7 85.1 L277.4 85.2 L278.0 85.3 L278.7 85.4 L279.3 85.5 L280.0 85.7 L280.6 85.8 L281.3 85.9 L281.9 86.0 L282.6 86.1 L283.2 86.3 L283.9 86.4 L284.5 86.5 L285.2 86.7 L285.8 86.8 L286.5 86.9 L287.1 87.1 L287.8 87.2 L288.4 87.4 L289.1 87.5 L289.7 87.7 L290.4 87.8 L291.0 88.0 L291.7 88.1 L292.3 88.3 L293.0 88.5 L293.6 88.6 L294.3 88.8 L294.9 89.0 L295.6 89.2 L296.2 89.3 L296.9 89.5 L297.5 89.7 L298.2 89.9 L298.8 90.1 L299.5 90.3 L300.2 90.5 L300.8 90.7 L301.5 90.9 L302.1 91.1 L302.8 91.3 L303.4 91.5 L304.1 91.7 L304.7 91.9 L305.4 92.2 L306.0 92.4 L306.7 92.6 L307.3 92.9 L308.0 93.1 L308.6 93.3 L309.3 93.6 L309.9 93.8 L310.6 94.1 L311.2 94.3 L311.9 94.6 L312.5 94.8 L313.2 95.1 L313.8 95.4 L314.5 95.6 L315.1 95.9 L315.8 96.2 L316.4 96.5 L317.1 96.7 L317.7 97.0 L318.4 97.3 L319.0 97.6 L319.7 97.9 L320.3 98.2 L321.0 98.5 L321.6 98.8 L322.3 99.1 L322.9 99.4 L323.6 99.8 L324.2 100.1 L324.9 100.4 L325.5 100.7 L326.2 101.1 L326.8 101.4 L327.5 101.7 L328.1 102.1 L328.8 102.4 L329.4 102.8 L330.1 103.1 L330.7 103.5 L331.4 103.8 L332.0 104.2 L332.7 104.6 L333.3 104.9 L334.0 105.3 L334.6 105.7 L335.3 106.1 L335.9 106.4 L336.6 106.8 L337.2 107.2 L337.9 107.6 L338.5 108.0 L339.2 108.4 L339.8 108.8 L340.5 109.2 L341.2 109.6 L341.8 110.0 L342.5 110.4 L343.1 110.8 L343.8 111.3 L344.4 111.7 L345.1 112.1 L345.7 112.5 L346.4 113.0 L347.0 113.4 L347.7 113.8 L348.3 114.3 L349.0 114.7 L349.6 115.2 L350.3 115.6 L350.9 116.1 L351.6 116.5 L352.2 117.0 L352.9 117.4 L353.5 117.9 L354.2 118.3 L354.8 118.8 L355.5 119.3 L356.1 119.7 L356.8 120.2 L357.4 120.7 L358.1 121.2 L358.7 121.6 L359.4 122.1 L360.0 122.6 L360.7 123.1 L361.3 123.6 L362.0 124.1 L362.6 124.5 L363.3 125.0 L363.9 125.5 L364.6 126.0 L365.2 126.5 L365.9 127.0 L366.5 127.5 L367.2 128.0 L367.8 128.5 L368.5 129.1 L369.1 129.6 L369.8 130.1 L370.4 130.6 L371.1 131.1 L371.7 131.6 L372.4 132.1 L373.0 132.7 L373.7 133.2 L374.3 133.7 L375.0 134.2 L375.6 134.8 L376.3 135.3 L376.9 135.8 L377.6 136.4 L378.2 136.9 L378.9 137.4 L379.5 138.0 L380.2 138.5 L380.9 139.0 L381.5 139.6 L382.2 140.1 L382.8 140.6 L383.5 141.2 L384.1 141.7 L384.8 142.3 L385.4 142.8 L386.1 143.4 L386.7 143.9 L387.4 144.5 L388.0 145.0 L388.7 145.6 L389.3 146.1 L390.0 146.7 L390.6 147.2 L391.3 147.8 L391.9 148.3 L392.6 148.9 L393.2 149.5 L393.9 150.0 L394.5 150.6 L395.2 151.1 L395.8 151.7 L396.5 152.3 L397.1 152.8 L397.8 153.4 L398.4 154.0 L399.1 154.5 L399.7 155.1 L400.4 155.7 L401.0 156.2 L401.7 156.8 L402.3 157.4 L403.0 157.9 L403.6 158.5 L404.3 159.1 L404.9 159.7 L405.6 160.2 L406.2 160.8 L406.9 161.4 L407.5 161.9 L408.2 162.5 L408.8 163.1 L409.5 163.7 L410.1 164.3 L410.8 164.8 L411.4 165.4 L412.1 166.0 L412.7 166.6 L413.4 167.1 L414.0 167.7 L414.7 168.3 L415.3 168.9 L416.0 169.5 L416.6 170.0 L417.3 170.6 L417.9 171.2 L418.6 171.8 L419.2 172.4 L419.9 173.0 L420.6 173.5 L421.2 174.1 L421.9 174.7 L422.5 175.3 L423.2 175.9 L423.8 176.5 L424.5 177.1 L425.1 177.6 L425.8 178.2 L426.4 178.8 L427.1 179.4 L427.7 180.0 L428.4 180.6 L429.0 181.2 L429.7 181.8 L430.3 182.3 L431.0 182.9 L431.6 183.5 L432.3 184.1 L432.9 184.7 L433.6 185.3 L434.2 185.9 L434.9 186.5 L435.5 187.1 L436.2 187.7 L436.8 188.2 L437.5 188.8 L438.1 189.4 L438.8 190.0 L439.4 190.6 L440.1 191.2 L440.7 191.8 L441.4 192.4 L442.0 193.0 L442.7 193.6 L443.3 194.2 L444.0 194.8 L444.6 195.4 L445.3 196.0 L445.9 196.5 L446.6 197.1 L447.2 197.7 L447.9 198.3 L448.5 198.9 L449.2 199.5 L449.8 200.1 L450.5 200.7 L451.1 201.3 L451.8 201.9 L452.4 202.5 L453.1 203.1 L453.7 203.7 L454.4 204.3 L455.0 204.9 L455.7 205.5 L456.3 206.1 L457.0 206.7 L457.6 207.3 L458.3 207.9 L458.9 208.4 L459.6 209.0 L460.3 209.6 L460.9 210.2 L461.6 210.8 L462.2 211.4 L462.9 212.0 L463.5 212.6 L464.2 213.2 L464.8 213.8 L465.5 214.4 L466.1 215.0 L466.8 215.6 L467.4 216.2 L468.1 216.8 L468.7 217.4 L469.4 218.0 L470.0 218.6 L470.7 219.2 L471.3 219.8 L472.0 220.4 L472.6 221.0 L473.3 221.6 L473.9 222.2 L474.6 222.8 L475.2 223.4 L475.9 224.0 L476.5 224.6 L477.2 225.2 L477.8 225.8 L478.5 226.4 L479.1 227.0 L479.8 227.6 L480.4 228.2 L481.1 228.8 L481.7 229.4 L482.4 230.0 L483.0 230.6 L483.7 231.2 L484.3 231.8 L485.0 232.4 L485.6 233.0 L486.3 233.6 L486.9 234.2 L487.6 234.8 L488.2 235.4 L488.9 236.0 L489.5 236.6 L490.2 237.2 L490.8 237.8 L491.5 238.4 L492.1 239.0 L492.8 239.6 L493.4 240.2 L494.1 240.8 L494.7 241.4 L495.4 242.0 L496.0 242.6 L496.7 243.2 L497.3 243.8 L498.0 244.4 L498.6 245.0 L499.3 245.6 L499.9 246.2 L500.6 246.8 L501.3 247.4 L501.9 248.0 L502.6 248.6 L503.2 249.2 L503.9 249.8 L504.5 250.4 L505.2 251.0 L505.8 251.6 L506.5 252.2 L507.1 252.8 L507.8 253.4 L508.4 254.0 L509.1 254.6 L509.7 255.2 L510.4 255.8 L511.0 256.4 L511.7 257.0 L512.3 257.6 L513.0 258.2 L513.6 258.8 L514.3 259.4 L514.9 260.0 L515.6 260.6 L516.2 261.2 L516.9 261.8 L517.5 262.4 L518.2 263.0 L518.8 263.6 L519.5 264.2 L520.1 264.8 L520.8 265.4 L521.4 266.0 L522.1 266.6 L522.7 267.2 L523.4 267.8 L524.0 268.4 L524.7 269.0 L525.3 269.6 L526.0 270.2 L526.6 270.8 L527.3 271.4 L527.9 272.0 L528.6 272.6 L529.2 273.2 L529.9 273.8 L530.5 274.4 L531.2 275.0 L531.8 275.6 L532.5 276.2 L533.1 276.8 L533.8 277.4 L534.4 278.0 L535.1 278.6 L535.7 279.2 L536.4 279.8 L537.0 280.4 L537.7 281.0 L538.3 281.6 L539.0 282.2 L539.6 282.8 L540.3 283.4 L541.0 284.0 L541.6 284.6 L542.3 285.2 L542.9 285.8 L543.6 286.4 L544.2 287.0 L544.9 287.6 L545.5 288.2 L546.2 288.8 L546.8 289.4 L547.5 290.0 L548.1 290.6 L548.8 291.2 L549.4 291.8 L550.1 292.4 L550.7 293.0 L551.4 293.6 L552.0 294.2 L552.7 294.8 L553.3 295.4 L554.0 296.0 L554.6 296.6 L555.3 297.2 L555.9 297.8 L556.6 298.4 L557.2 299.0 L557.9 299.6 L558.5 300.2 L559.2 300.8 L559.8 301.4 L560.5 302.0 L561.1 302.6 L561.8 303.2 L562.4 303.8 L563.1 304.4 L563.7 305.0 L564.4 305.6 L565.0 306.2 L565.7 306.8 L566.3 307.4 L567.0 308.0 L567.6 308.6 L568.3 309.2 L568.9 309.8 L569.6 310.4 L570.2 311.0 L570.9 311.6 L571.5 312.2 L572.2 312.8 L572.8 313.4 L573.5 314.0 L574.1 314.6 L574.8 315.2 L575.4 315.8 L576.1 316.4 L576.7 317.0 L577.4 317.6 L578.0 318.2 L578.7 318.8 L579.3 319.4 L580.0 320.0" fill="none" stroke="var(--colore-blu, #1d4ed8)" stroke-width="1.8" stroke-linejoin="round" stroke-linecap="round" />
  <path d="M320.0 80.0 V98.1" stroke="var(--colore-rosso, #b3261e)" stroke-width="1.6" />
  <circle cx="320.0" cy="80.0" r="3.2" fill="var(--colore-rosso, #b3261e)" />
  <path d="M60.0 20.0 V320.0 H580.0" fill="none" stroke="var(--colore-testo-2, #45443d)" stroke-width="1.2" />
  <text x="73.0" y="62.0" text-anchor="start" font-family="var(--font-serif, Georgia, serif)" font-size="15" fill="var(--colore-testo-2, #45443d)">&#969; &#8594; 0</text>
  <text x="567.0" y="236.0" text-anchor="end" font-family="var(--font-serif, Georgia, serif)" font-size="15" fill="var(--colore-testo-2, #45443d)">&#969; &#8594; &#8734;</text>
  <text x="439.5" y="146.0" text-anchor="start" font-family="var(--font-mono, monospace)" font-size="12" fill="var(--colore-rosso, #b3261e)">&#8722;20 dB/decade</text>
  <text x="335.6" y="89.0" text-anchor="start" font-family="var(--font-mono, monospace)" font-size="12" fill="var(--colore-rosso, #b3261e)">3 dB</text>
  <text x="320.0" y="312.0" text-anchor="middle" font-family="var(--font-serif, Georgia, serif)" font-size="14" fill="var(--colore-testo-2, #45443d)">&#969;&#8320;</text>
  <g font-family="var(--font-mono, monospace)" font-size="13" fill="var(--colore-muted, #7d7a70)" text-anchor="middle"><text x="60.0" y="339.0">-2</text><text x="190.0" y="339.0">-1</text><text x="320.0" y="339.0">0</text><text x="450.0" y="339.0">1</text><text x="580.0" y="339.0">2</text></g>
  <g font-family="var(--font-mono, monospace)" font-size="13" fill="var(--colore-muted, #7d7a70)" text-anchor="end"><text x="51.0" y="24.5">10</text><text x="51.0" y="84.5">0</text><text x="51.0" y="144.5">-10</text><text x="51.0" y="204.5">-20</text><text x="51.0" y="264.5">-30</text><text x="51.0" y="324.5">-40</text></g>
  <text x="320.0" y="360.0" text-anchor="middle" font-family="var(--font-mono, monospace)" font-size="11" fill="var(--colore-muted, #7d7a70)">log&#8321;&#8320;(&#969;)</text>
  <text transform="rotate(-90 16.0 170.0)" x="16.0" y="170.0" text-anchor="middle" font-family="var(--font-mono, monospace)" font-size="13" fill="var(--colore-muted, #7d7a70)">dB</text>
</svg>
