<svg xmlns="http://www.w3.org/2000/svg" viewBox="0 0 528 365" fill="none">
  <rect x="60.0" y="10.0" width="460.0" height="300.0" fill="var(--colore-foglio, #fbf9f5)" />
  <path d="M88.8 10.0 V310.0 M160.6 10.0 V310.0 M232.5 10.0 V310.0 M304.4 10.0 V310.0 M376.2 10.0 V310.0 M448.1 10.0 V310.0 M520.0 10.0 V310.0 M60.0 302.9 H520.0 M60.0 231.4 H520.0 M60.0 160.0 H520.0 M60.0 88.6 H520.0 M60.0 17.1 H520.0" stroke="var(--colore-filetto, #d9d3c6)" stroke-width="1" />
  <path d="M60.0 160.0 H520.0 M448.1 310.0 V10.0" stroke="var(--colore-testo-2, #45443d)" stroke-width="1" stroke-dasharray="2 3" />
  <path d="M160.6 160.0 H376.2" stroke="var(--colore-blu, #1d4ed8)" stroke-width="2" />
  <path d="M268.4 160.0 V10.0 M268.4 160.0 V310.0" stroke="var(--colore-blu, #1d4ed8)" stroke-width="2" />
  <path d="M370.2 154.0 l12.0 12.0 M370.2 166.0 l12.0 -12.0" stroke="var(--colore-testo, #1a1a17)" stroke-width="2" />
  <path d="M154.6 154.0 l12.0 12.0 M154.6 166.0 l12.0 -12.0" stroke="var(--colore-testo, #1a1a17)" stroke-width="2" />
  <circle cx="268.4" cy="160.0" r="4.6" fill="var(--colore-rosso, #b3261e)" />
  <path d="M263.9 112.8 l4.5 -4.5 l4.5 4.5 l-4.5 4.5 z" fill="var(--colore-testo-2, #45443d)" />
  <path d="M263.9 207.2 l4.5 -4.5 l4.5 4.5 l-4.5 4.5 z" fill="var(--colore-testo-2, #45443d)" />
  <text x="278.4" y="116.3" text-anchor="start" font-family="var(--font-mono, monospace)" font-size="12" fill="var(--colore-testo-2, #45443d)">K = 4</text>
  <path d="M263.9 74.4 l4.5 -4.5 l4.5 4.5 l-4.5 4.5 z" fill="var(--colore-testo-2, #45443d)" />
  <path d="M263.9 245.6 l4.5 -4.5 l4.5 4.5 l-4.5 4.5 z" fill="var(--colore-testo-2, #45443d)" />
  <text x="278.4" y="77.9" text-anchor="start" font-family="var(--font-mono, monospace)" font-size="12" fill="var(--colore-testo-2, #45443d)">K = 8</text>
  <path d="M263.9 27.6 l4.5 -4.5 l4.5 4.5 l-4.5 4.5 z" fill="var(--colore-testo-2, #45443d)" />
  <path d="M263.9 292.4 l4.5 -4.5 l4.5 4.5 l-4.5 4.5 z" fill="var(--colore-testo-2, #45443d)" />
  <text x="278.4" y="31.1" text-anchor="start" font-family="var(--font-mono, monospace)" font-size="12" fill="var(--colore-testo-2, #45443d)">K = 16</text>
  <text x="160.6" y="146.0" text-anchor="middle" font-family="var(--font-mono, monospace)" font-size="12" fill="var(--colore-testo-2, #45443d)">K = 0</text>
  <text x="376.2" y="182.0" text-anchor="middle" font-family="var(--font-mono, monospace)" font-size="12" fill="var(--colore-testo-2, #45443d)">K = 0</text>
  <text x="259.4" y="151.0" text-anchor="end" font-family="var(--font-mono, monospace)" font-size="12" fill="var(--colore-rosso, #b3261e)">K = 2.25</text>
  <path d="M60.0 10.0 V310.0 H520.0" fill="none" stroke="var(--colore-testo-2, #45443d)" stroke-width="1.2" />
  <g font-family="var(--font-mono, monospace)" font-size="13" fill="var(--colore-muted, #7d7a70)" text-anchor="middle"><text x="88.8" y="329.0">-5</text><text x="160.6" y="329.0">-4</text><text x="232.5" y="329.0">-3</text><text x="304.4" y="329.0">-2</text><text x="376.2" y="329.0">-1</text><text x="448.1" y="329.0">0</text><text x="520.0" y="329.0">1</text></g>
  <g font-family="var(--font-mono, monospace)" font-size="13" fill="var(--colore-muted, #7d7a70)" text-anchor="end"><text x="51.0" y="307.4">-4</text><text x="51.0" y="235.9">-2</text><text x="51.0" y="164.5">0</text><text x="51.0" y="93.1">2</text><text x="51.0" y="21.6">4</text></g>
  <text x="290.0" y="350.0" text-anchor="middle" font-family="var(--font-mono, monospace)" font-size="11" fill="var(--colore-muted, #7d7a70)">Re{s}</text>
  <text transform="rotate(-90 16.0 160.0)" x="16.0" y="160.0" text-anchor="middle" font-family="var(--font-mono, monospace)" font-size="13" fill="var(--colore-muted, #7d7a70)">Im{s}</text>
</svg>
